<?xml version="1.0" standalone="no"?>
<!DOCTYPE svg PUBLIC "-//W3C//DTD SVG 20010904//EN"
 "http://www.w3.org/TR/2001/REC-SVG-20010904/DTD/svg10.dtd">
<svg version="1.0" xmlns="http://www.w3.org/2000/svg"
 width="433.000000pt" height="116.000000pt" viewBox="0 0 433.000000 116.000000"
 preserveAspectRatio="xMidYMid meet">

<g transform="translate(0.000000,116.000000) scale(0.100000,-0.100000)"
fill="#000000" stroke="none">
<path d="M803 761 c-94 -20 -178 -43 -187 -50 -14 -12 -16 -46 -16 -248 0
-213 2 -234 18 -240 28 -11 375 64 390 84 9 12 12 77 12 239 0 122 -3 229 -6
238 -8 21 -10 21 -211 -23z m-98 -113 c19 -13 35 -29 35 -36 0 -18 -62 -92
-77 -92 -19 0 -16 9 13 48 l27 34 -28 22 c-17 13 -25 28 -21 34 10 16 11 16
51 -10z m160 -67 c7 -13 -20 -27 -67 -35 -30 -6 -38 -4 -38 8 0 23 92 47 105
27z"/>
</g>
</svg>
